<svg id="XMLID_122_" xmlns="http://www.w3.org/2000/svg" width="15.712" height="19.649" viewBox="0 0 15.712 19.649">
  <g id="Group_4" data-name="Group 4" transform="translate(0 0)">
    <path id="Path_4" data-name="Path 4" d="M63.531,8.24a11.253,11.253,0,0,0,.13-1.535,5.191,5.191,0,0,0-1.393-3.7A4.172,4.172,0,0,0,62.035.041c-.66-.234-2.3.6-3.189,1.195a11.8,11.8,0,0,0-5.691.11C51.024-.18,49.9.053,49.9.053A4.5,4.5,0,0,0,49.7,3.27a4.322,4.322,0,0,0-1.224,3.2,9.893,9.893,0,0,0,.067,1.145,5.868,5.868,0,0,0,5.59,4.78,2.224,2.224,0,0,0-.88,1.437A2.869,2.869,0,0,1,51.121,14c-1.024-.324-1.416-2.351-2.949-2.062-.332.062-.266.281.021.467A3.015,3.015,0,0,1,49.439,13.9a2.513,2.513,0,0,0,2.54,1.724,7.767,7.767,0,0,0,1.169-.081s.013,1.577.013,2.192c0,.708-.955.906-.955,1.246,0,.135.316.148.57.148.5,0,1.547-.418,1.547-1.154,0-.584.009-2.549.009-2.893a1.111,1.111,0,0,1,.4-.991s.049,4.012-.1,4.55c-.171.633-.482.543-.482.824,0,.42,1.256.1,1.672-.817.322-.718.178-4.653.178-4.653l.336-.007s0,1.8-.008,2.625c-.012.853-.1,1.931.406,2.439.332.335,1.351.922,1.351.385,0-.311-.713-.568-.713-1.41V14.142c.433,0,.523,1.276.523,1.276l.156,2.37a1.209,1.209,0,0,0,.934,1.226c.366.128,1.15.163,1.187-.052s-.944-.535-.953-1.2c-.005-.408.018-.646.018-2.42s-.238-2.428-1.068-2.95C60.582,12.14,63.081,11.065,63.531,8.24Z" transform="translate(-47.949 0)" fill="#3e3f44"/>
  </g>
</svg>
