<svg xmlns="http://www.w3.org/2000/svg" width="22" height="22" viewBox="0 0 22 22">
  <path id="code-icon" d="M11.735,16.052a.214.214,0,0,0,.206.22h5.088a.214.214,0,0,0,.206-.22v-1.32a.214.214,0,0,0-.206-.22H11.941a.214.214,0,0,0-.206.22Zm-5.36.168,5.28-4.427a.222.222,0,0,0,0-.338L6.375,7.03a.219.219,0,0,0-.36.168V8.922a.21.21,0,0,0,.08.168l3.02,2.536L6.095,14.16a.223.223,0,0,0-.08.168v1.724A.219.219,0,0,0,6.375,16.22ZM21.745.625H1.5a.879.879,0,0,0-.88.88v20.24a.879.879,0,0,0,.88.88h20.24a.879.879,0,0,0,.88-.88V1.5A.879.879,0,0,0,21.745.625Zm-1.1,20.02H2.6V2.6h18.04Z" transform="translate(-0.625 -0.625)" fill="#3e3f44"/>
</svg>
