<svg id="linked-in-logo-of-two-letters" xmlns="http://www.w3.org/2000/svg" width="22.694" height="20.73" viewBox="0 0 22.694 20.73">
  <g id="Group_5" data-name="Group 5">
    <path id="Path_5" data-name="Path 5" d="M.737,193.219h2.95a.737.737,0,0,0,.737-.737v-12.9a.737.737,0,0,0-.737-.737H.737a.737.737,0,0,0-.737.737v12.9A.737.737,0,0,0,.737,193.219Z" transform="translate(0 -172.489)" fill="#3e3f44"/>
    <path id="Path_6" data-name="Path 6" d="M.737,28.01h2.95a.737.737,0,0,0,.737-.737v-2.62a.737.737,0,0,0-.737-.737H.737A.737.737,0,0,0,0,24.653v2.62A.737.737,0,0,0,.737,28.01Z" transform="translate(0 -23.916)" fill="#3e3f44"/>
    <path id="Path_7" data-name="Path 7" d="M195.675,171.519a4.486,4.486,0,0,0-1.834-1.346,6.641,6.641,0,0,0-2.677-.527,6.555,6.555,0,0,0-5.037,2.269c-.274.3-.473.235-.473-.172v-.982a.737.737,0,0,0-.737-.737h-2.635a.737.737,0,0,0-.737.737v12.9a.737.737,0,0,0,.737.737h2.95a.737.737,0,0,0,.737-.737v-4.485a14.428,14.428,0,0,1,.338-3.842,3.173,3.173,0,0,1,1.252-1.669,3.548,3.548,0,0,1,2.063-.63,2.632,2.632,0,0,1,1.535.441,2.457,2.457,0,0,1,.921,1.236,13.186,13.186,0,0,1,.283,3.5v5.445a.737.737,0,0,0,.737.737h2.95a.737.737,0,0,0,.737-.737v-7.3a13.83,13.83,0,0,0-.244-2.976A4.874,4.874,0,0,0,195.675,171.519Z" transform="translate(-174.091 -163.662)" fill="#3e3f44"/>
  </g>
</svg>
